<svg xmlns="http://www.w3.org/2000/svg" xmlns:xlink="http://www.w3.org/1999/xlink" width="500" zoomAndPan="magnify" viewBox="0 0 375 149.999998" height="200" preserveAspectRatio="xMidYMid meet" version="1.0"><defs><g/><clipPath id="46a9b33466"><path d="M 301.871094 50.164062 L 370.832031 50.164062 L 370.832031 99.660156 L 301.871094 99.660156 Z M 301.871094 50.164062 " clip-rule="nonzero"/></clipPath></defs><g clip-path="url(#46a9b33466)"><path fill="#50aee5" d="M 309.3125 99.332031 C 318.058594 100.5 326.890625 98.367188 335.351562 95.867188 C 341.570312 94.027344 347.753906 91.972656 353.53125 89.03125 C 359.308594 86.089844 364.6875 82.230469 368.765625 77.207031 C 369.074219 76.832031 369.375 76.4375 369.554688 75.988281 C 370.121094 74.5625 369.28125 72.902344 368.046875 71.992188 C 366.808594 71.085938 365.257812 70.738281 363.773438 70.335938 C 361.199219 69.640625 358.683594 68.722656 356.269531 67.597656 C 355.574219 67.273438 354.839844 66.882812 354.527344 66.191406 C 353.90625 64.824219 355.289062 63.390625 356.632812 62.714844 C 360.179688 60.921875 364.375 60.851562 368.046875 59.328125 C 369.574219 58.695312 371.21875 57.304688 370.75 55.726562 C 370.445312 54.691406 369.355469 54.121094 368.371094 53.667969 C 365.832031 52.5 363.292969 51.332031 360.753906 50.164062 C 361.667969 51.007812 362.484375 51.960938 363.175781 52.996094 C 363.488281 53.464844 363.789062 53.992188 363.757812 54.554688 C 363.699219 55.597656 362.589844 56.234375 361.589844 56.570312 C 358.414062 57.640625 355 57.691406 351.664062 58.050781 C 347.898438 58.457031 344.175781 59.269531 340.585938 60.472656 C 338.996094 61.003906 337.226562 61.828125 336.808594 63.445312 C 336.363281 65.179688 337.765625 66.875 339.320312 67.777344 C 341.566406 69.082031 344.289062 69.46875 346.421875 70.949219 C 347.160156 71.460938 347.867188 72.414062 347.390625 73.175781 C 347.21875 73.453125 346.921875 73.625 346.632812 73.785156 C 344.082031 75.199219 341.386719 76.351562 338.597656 77.214844 C 335.671875 78.121094 332.65625 78.710938 329.644531 79.300781 C 320.386719 81.105469 311.128906 82.910156 301.871094 84.71875 L 309.3125 99.332031 " fill-opacity="1" fill-rule="nonzero"/></g><g fill="#000000" fill-opacity="1"><g transform="translate(4.274309, 93.056019)"><g><path d="M 22.6875 0.53125 C 18.820312 0.53125 15.457031 -0.34375 12.59375 -2.09375 C 9.726562 -3.851562 7.515625 -6.332031 5.953125 -9.53125 C 4.390625 -12.738281 3.609375 -16.535156 3.609375 -20.921875 C 3.609375 -24.234375 4.050781 -27.203125 4.9375 -29.828125 C 5.832031 -32.453125 7.109375 -34.679688 8.765625 -36.515625 C 10.421875 -38.359375 12.425781 -39.78125 14.78125 -40.78125 C 17.132812 -41.789062 19.769531 -42.296875 22.6875 -42.296875 C 26.644531 -42.296875 30.050781 -41.425781 32.90625 -39.6875 C 35.769531 -37.957031 37.984375 -35.5 39.546875 -32.3125 C 41.109375 -29.132812 41.890625 -25.351562 41.890625 -20.96875 C 41.890625 -17.65625 41.4375 -14.675781 40.53125 -12.03125 C 39.625 -9.382812 38.335938 -7.128906 36.671875 -5.265625 C 35.015625 -3.410156 33.007812 -1.976562 30.65625 -0.96875 C 28.3125 0.03125 25.65625 0.53125 22.6875 0.53125 Z M 22.6875 -3.796875 C 25.695312 -3.796875 28.238281 -4.46875 30.3125 -5.8125 C 32.382812 -7.15625 33.972656 -9.109375 35.078125 -11.671875 C 36.179688 -14.242188 36.734375 -17.328125 36.734375 -20.921875 C 36.734375 -26.328125 35.519531 -30.519531 33.09375 -33.5 C 30.664062 -36.488281 27.195312 -37.984375 22.6875 -37.984375 C 19.769531 -37.984375 17.273438 -37.3125 15.203125 -35.96875 C 13.128906 -34.625 11.535156 -32.675781 10.421875 -30.125 C 9.316406 -27.582031 8.765625 -24.515625 8.765625 -20.921875 C 8.765625 -15.546875 9.988281 -11.347656 12.4375 -8.328125 C 14.882812 -5.304688 18.300781 -3.796875 22.6875 -3.796875 Z M 22.6875 -3.796875 "/></g></g></g><g fill="#000000" fill-opacity="1"><g transform="translate(49.716413, 93.056019)"><g><path d="M 17.234375 11.203125 C 15.140625 11.203125 13.097656 10.953125 11.109375 10.453125 C 9.117188 9.960938 7.3125 9.1875 5.6875 8.125 C 5.21875 7.84375 4.910156 7.503906 4.765625 7.109375 C 4.628906 6.710938 4.597656 6.328125 4.671875 5.953125 C 4.753906 5.578125 4.929688 5.238281 5.203125 4.9375 C 5.484375 4.644531 5.8125 4.457031 6.1875 4.375 C 6.5625 4.300781 6.945312 4.363281 7.34375 4.5625 C 9.082031 5.625 10.738281 6.351562 12.3125 6.75 C 13.894531 7.144531 15.457031 7.34375 17 7.34375 C 19.8125 7.34375 21.9375 6.59375 23.375 5.09375 C 24.8125 3.59375 25.53125 1.421875 25.53125 -1.421875 L 25.53125 -8.125 L 26.125 -8.125 C 25.53125 -5.832031 24.273438 -4.015625 22.359375 -2.671875 C 20.453125 -1.328125 18.210938 -0.65625 15.640625 -0.65625 C 12.992188 -0.65625 10.703125 -1.253906 8.765625 -2.453125 C 6.828125 -3.660156 5.332031 -5.347656 4.28125 -7.515625 C 3.238281 -9.691406 2.71875 -12.203125 2.71875 -15.046875 C 2.71875 -17.179688 3.015625 -19.125 3.609375 -20.875 C 4.203125 -22.632812 5.0625 -24.132812 6.1875 -25.375 C 7.3125 -26.625 8.671875 -27.59375 10.265625 -28.28125 C 11.867188 -28.976562 13.660156 -29.328125 15.640625 -29.328125 C 18.242188 -29.328125 20.492188 -28.664062 22.390625 -27.34375 C 24.285156 -26.019531 25.507812 -24.234375 26.0625 -21.984375 L 25.484375 -21.265625 L 25.484375 -26.78125 C 25.484375 -27.570312 25.6875 -28.171875 26.09375 -28.578125 C 26.507812 -28.992188 27.09375 -29.203125 27.84375 -29.203125 C 28.632812 -29.203125 29.226562 -28.992188 29.625 -28.578125 C 30.019531 -28.171875 30.21875 -27.570312 30.21875 -26.78125 L 30.21875 -2.078125 C 30.21875 2.304688 29.117188 5.613281 26.921875 7.84375 C 24.734375 10.082031 21.503906 11.203125 17.234375 11.203125 Z M 16.53125 -4.5625 C 18.382812 -4.5625 19.984375 -4.984375 21.328125 -5.828125 C 22.671875 -6.679688 23.707031 -7.894531 24.4375 -9.46875 C 25.164062 -11.050781 25.53125 -12.910156 25.53125 -15.046875 C 25.53125 -18.242188 24.71875 -20.78125 23.09375 -22.65625 C 21.476562 -24.539062 19.289062 -25.484375 16.53125 -25.484375 C 14.71875 -25.484375 13.140625 -25.054688 11.796875 -24.203125 C 10.453125 -23.359375 9.410156 -22.15625 8.671875 -20.59375 C 7.941406 -19.03125 7.578125 -17.179688 7.578125 -15.046875 C 7.578125 -11.847656 8.382812 -9.300781 10 -7.40625 C 11.625 -5.507812 13.800781 -4.5625 16.53125 -4.5625 Z M 16.53125 -4.5625 "/></g></g></g><g fill="#000000" fill-opacity="1"><g transform="translate(84.434913, 93.056019)"><g><path d="M 13.265625 0.53125 C 10.421875 0.53125 8.25 -0.335938 6.75 -2.078125 C 5.25 -3.816406 4.5 -6.304688 4.5 -9.546875 L 4.5 -39.75 C 4.5 -40.539062 4.695312 -41.144531 5.09375 -41.5625 C 5.488281 -41.976562 6.082031 -42.1875 6.875 -42.1875 C 7.625 -42.1875 8.210938 -41.976562 8.640625 -41.5625 C 9.078125 -41.144531 9.296875 -40.539062 9.296875 -39.75 L 9.296875 -9.890625 C 9.296875 -7.753906 9.71875 -6.164062 10.5625 -5.125 C 11.414062 -4.082031 12.675781 -3.5625 14.34375 -3.5625 C 14.695312 -3.5625 15.007812 -3.578125 15.28125 -3.609375 C 15.5625 -3.648438 15.835938 -3.671875 16.109375 -3.671875 C 16.546875 -3.710938 16.851562 -3.613281 17.03125 -3.375 C 17.207031 -3.132812 17.296875 -2.660156 17.296875 -1.953125 C 17.296875 -1.242188 17.140625 -0.710938 16.828125 -0.359375 C 16.515625 -0.00390625 16 0.234375 15.28125 0.359375 C 14.96875 0.398438 14.632812 0.4375 14.28125 0.46875 C 13.925781 0.507812 13.585938 0.53125 13.265625 0.53125 Z M 13.265625 0.53125 "/></g></g></g><g fill="#000000" fill-opacity="1"><g transform="translate(101.971912, 93.056019)"><g><path d="M 6.875 0.296875 C 6.082031 0.296875 5.488281 0.0703125 5.09375 -0.375 C 4.695312 -0.832031 4.5 -1.476562 4.5 -2.3125 L 4.5 -26.546875 C 4.5 -27.367188 4.695312 -28 5.09375 -28.4375 C 5.488281 -28.875 6.082031 -29.09375 6.875 -29.09375 C 7.625 -29.09375 8.210938 -28.875 8.640625 -28.4375 C 9.078125 -28 9.296875 -27.367188 9.296875 -26.546875 L 9.296875 -2.3125 C 9.296875 -1.476562 9.085938 -0.832031 8.671875 -0.375 C 8.265625 0.0703125 7.664062 0.296875 6.875 0.296875 Z M 6.875 -35.734375 C 5.882812 -35.734375 5.113281 -36 4.5625 -36.53125 C 4.007812 -37.0625 3.734375 -37.78125 3.734375 -38.6875 C 3.734375 -39.632812 4.007812 -40.351562 4.5625 -40.84375 C 5.113281 -41.34375 5.882812 -41.59375 6.875 -41.59375 C 7.894531 -41.59375 8.671875 -41.34375 9.203125 -40.84375 C 9.742188 -40.351562 10.015625 -39.632812 10.015625 -38.6875 C 10.015625 -37.78125 9.742188 -37.0625 9.203125 -36.53125 C 8.671875 -36 7.894531 -35.734375 6.875 -35.734375 Z M 6.875 -35.734375 "/></g></g></g><g fill="#000000" fill-opacity="1"><g transform="translate(115.71713, 93.056019)"><g><path d="M 16.46875 0.53125 C 13.664062 0.53125 11.238281 -0.078125 9.1875 -1.296875 C 7.132812 -2.523438 5.539062 -4.253906 4.40625 -6.484375 C 3.28125 -8.710938 2.71875 -11.347656 2.71875 -14.390625 C 2.71875 -16.679688 3.035156 -18.742188 3.671875 -20.578125 C 4.304688 -22.421875 5.234375 -23.992188 6.453125 -25.296875 C 7.679688 -26.597656 9.132812 -27.59375 10.8125 -28.28125 C 12.488281 -28.976562 14.375 -29.328125 16.46875 -29.328125 C 19.269531 -29.328125 21.695312 -28.710938 23.75 -27.484375 C 25.8125 -26.265625 27.40625 -24.535156 28.53125 -22.296875 C 29.65625 -20.066406 30.21875 -17.429688 30.21875 -14.390625 C 30.21875 -12.109375 29.898438 -10.054688 29.265625 -8.234375 C 28.640625 -6.421875 27.710938 -4.851562 26.484375 -3.53125 C 25.253906 -2.207031 23.800781 -1.195312 22.125 -0.5 C 20.445312 0.1875 18.5625 0.53125 16.46875 0.53125 Z M 16.46875 -3.3125 C 18.25 -3.3125 19.8125 -3.742188 21.15625 -4.609375 C 22.5 -5.484375 23.535156 -6.75 24.265625 -8.40625 C 24.992188 -10.070312 25.359375 -12.066406 25.359375 -14.390625 C 25.359375 -17.992188 24.554688 -20.742188 22.953125 -22.640625 C 21.359375 -24.535156 19.195312 -25.484375 16.46875 -25.484375 C 14.65625 -25.484375 13.085938 -25.054688 11.765625 -24.203125 C 10.441406 -23.359375 9.410156 -22.113281 8.671875 -20.46875 C 7.941406 -18.832031 7.578125 -16.804688 7.578125 -14.390625 C 7.578125 -10.835938 8.382812 -8.101562 10 -6.1875 C 11.625 -4.269531 13.78125 -3.3125 16.46875 -3.3125 Z M 16.46875 -3.3125 "/></g></g></g><g fill="#000000" fill-opacity="1"><g transform="translate(148.658233, 93.056019)"><g><path d="M 18.65625 0.53125 C 16.800781 0.53125 14.984375 0.367188 13.203125 0.046875 C 11.429688 -0.265625 9.785156 -0.710938 8.265625 -1.296875 C 6.742188 -1.890625 5.367188 -2.644531 4.140625 -3.5625 C 3.671875 -3.914062 3.347656 -4.316406 3.171875 -4.765625 C 2.992188 -5.222656 2.953125 -5.675781 3.046875 -6.125 C 3.148438 -6.582031 3.347656 -6.96875 3.640625 -7.28125 C 3.941406 -7.601562 4.304688 -7.78125 4.734375 -7.8125 C 5.171875 -7.851562 5.644531 -7.71875 6.15625 -7.40625 C 7.9375 -6.144531 9.832031 -5.226562 11.84375 -4.65625 C 13.863281 -4.082031 16.132812 -3.796875 18.65625 -3.796875 C 22.21875 -3.796875 24.859375 -4.457031 26.578125 -5.78125 C 28.296875 -7.101562 29.15625 -8.847656 29.15625 -11.015625 C 29.15625 -12.796875 28.53125 -14.1875 27.28125 -15.1875 C 26.039062 -16.195312 23.957031 -17 21.03125 -17.59375 L 14.875 -18.84375 C 11.15625 -19.632812 8.378906 -20.925781 6.546875 -22.71875 C 4.710938 -24.519531 3.796875 -26.921875 3.796875 -29.921875 C 3.796875 -31.773438 4.171875 -33.460938 4.921875 -34.984375 C 5.671875 -36.503906 6.71875 -37.804688 8.0625 -38.890625 C 9.40625 -39.984375 11.003906 -40.820312 12.859375 -41.40625 C 14.710938 -42 16.765625 -42.296875 19.015625 -42.296875 C 21.503906 -42.296875 23.820312 -41.953125 25.96875 -41.265625 C 28.125 -40.578125 30.070312 -39.539062 31.8125 -38.15625 C 32.25 -37.800781 32.546875 -37.394531 32.703125 -36.9375 C 32.859375 -36.488281 32.878906 -36.054688 32.765625 -35.640625 C 32.648438 -35.222656 32.441406 -34.875 32.140625 -34.59375 C 31.847656 -34.320312 31.472656 -34.164062 31.015625 -34.125 C 30.566406 -34.082031 30.0625 -34.242188 29.5 -34.609375 C 27.925781 -35.785156 26.289062 -36.640625 24.59375 -37.171875 C 22.894531 -37.710938 21.015625 -37.984375 18.953125 -37.984375 C 16.859375 -37.984375 15.050781 -37.664062 13.53125 -37.03125 C 12.007812 -36.394531 10.820312 -35.472656 9.96875 -34.265625 C 9.125 -33.066406 8.703125 -31.675781 8.703125 -30.09375 C 8.703125 -28.195312 9.285156 -26.695312 10.453125 -25.59375 C 11.617188 -24.488281 13.523438 -23.679688 16.171875 -23.171875 L 22.34375 -21.859375 C 26.332031 -21.035156 29.28125 -19.78125 31.1875 -18.09375 C 33.101562 -16.414062 34.0625 -14.132812 34.0625 -11.25 C 34.0625 -9.519531 33.707031 -7.921875 33 -6.453125 C 32.289062 -4.992188 31.265625 -3.738281 29.921875 -2.6875 C 28.578125 -1.644531 26.957031 -0.847656 25.0625 -0.296875 C 23.164062 0.253906 21.03125 0.53125 18.65625 0.53125 Z M 18.65625 0.53125 "/></g></g></g><g fill="#000000" fill-opacity="1"><g transform="translate(185.094875, 93.056019)"><g><path d="M 16.0625 0.53125 C 13.800781 0.53125 11.910156 0.128906 10.390625 -0.671875 C 8.878906 -1.484375 7.742188 -2.671875 6.984375 -4.234375 C 6.234375 -5.796875 5.859375 -7.703125 5.859375 -9.953125 L 5.859375 -25.0625 L 1.890625 -25.0625 C 1.222656 -25.0625 0.710938 -25.226562 0.359375 -25.5625 C 0.00390625 -25.894531 -0.171875 -26.359375 -0.171875 -26.953125 C -0.171875 -27.546875 0.00390625 -28 0.359375 -28.3125 C 0.710938 -28.632812 1.222656 -28.796875 1.890625 -28.796875 L 5.859375 -28.796875 L 5.859375 -35.609375 C 5.859375 -36.398438 6.078125 -37 6.515625 -37.40625 C 6.953125 -37.820312 7.546875 -38.03125 8.296875 -38.03125 C 9.046875 -38.03125 9.628906 -37.820312 10.046875 -37.40625 C 10.460938 -37 10.671875 -36.398438 10.671875 -35.609375 L 10.671875 -28.796875 L 18.125 -28.796875 C 18.800781 -28.796875 19.316406 -28.632812 19.671875 -28.3125 C 20.023438 -28 20.203125 -27.546875 20.203125 -26.953125 C 20.203125 -26.359375 20.023438 -25.894531 19.671875 -25.5625 C 19.316406 -25.226562 18.800781 -25.0625 18.125 -25.0625 L 10.671875 -25.0625 L 10.671875 -10.421875 C 10.671875 -8.171875 11.144531 -6.460938 12.09375 -5.296875 C 13.039062 -4.140625 14.578125 -3.5625 16.703125 -3.5625 C 17.453125 -3.5625 18.09375 -3.640625 18.625 -3.796875 C 19.164062 -3.953125 19.613281 -4.03125 19.96875 -4.03125 C 20.320312 -4.070312 20.617188 -3.953125 20.859375 -3.671875 C 21.097656 -3.398438 21.21875 -2.925781 21.21875 -2.25 C 21.21875 -1.78125 21.125 -1.347656 20.9375 -0.953125 C 20.757812 -0.554688 20.457031 -0.28125 20.03125 -0.125 C 19.550781 0.0390625 18.925781 0.191406 18.15625 0.328125 C 17.382812 0.460938 16.6875 0.53125 16.0625 0.53125 Z M 16.0625 0.53125 "/></g></g></g><g fill="#000000" fill-opacity="1"><g transform="translate(205.831173, 93.056019)"><g><path d="M 13.5625 0.53125 C 11.59375 0.53125 9.828125 0.144531 8.265625 -0.625 C 6.703125 -1.394531 5.46875 -2.453125 4.5625 -3.796875 C 3.65625 -5.140625 3.203125 -6.640625 3.203125 -8.296875 C 3.203125 -10.429688 3.742188 -12.109375 4.828125 -13.328125 C 5.910156 -14.554688 7.707031 -15.425781 10.21875 -15.9375 C 12.726562 -16.445312 16.15625 -16.703125 20.5 -16.703125 L 23.171875 -16.703125 L 23.171875 -13.5625 L 20.5625 -13.5625 C 17.363281 -13.5625 14.84375 -13.410156 13 -13.109375 C 11.164062 -12.816406 9.882812 -12.316406 9.15625 -11.609375 C 8.425781 -10.898438 8.0625 -9.894531 8.0625 -8.59375 C 8.0625 -6.96875 8.625 -5.640625 9.75 -4.609375 C 10.875 -3.585938 12.40625 -3.078125 14.34375 -3.078125 C 15.914062 -3.078125 17.304688 -3.453125 18.515625 -4.203125 C 19.722656 -4.953125 20.671875 -5.976562 21.359375 -7.28125 C 22.046875 -8.59375 22.390625 -10.097656 22.390625 -11.796875 L 22.390625 -18.546875 C 22.390625 -20.992188 21.894531 -22.757812 20.90625 -23.84375 C 19.925781 -24.9375 18.3125 -25.484375 16.0625 -25.484375 C 14.675781 -25.484375 13.289062 -25.300781 11.90625 -24.9375 C 10.519531 -24.582031 9.0625 -24.007812 7.53125 -23.21875 C 6.96875 -22.945312 6.488281 -22.859375 6.09375 -22.953125 C 5.707031 -23.054688 5.394531 -23.265625 5.15625 -23.578125 C 4.914062 -23.898438 4.773438 -24.265625 4.734375 -24.671875 C 4.703125 -25.085938 4.789062 -25.492188 5 -25.890625 C 5.21875 -26.285156 5.566406 -26.601562 6.046875 -26.84375 C 7.785156 -27.707031 9.503906 -28.335938 11.203125 -28.734375 C 12.898438 -29.128906 14.519531 -29.328125 16.0625 -29.328125 C 18.550781 -29.328125 20.601562 -28.921875 22.21875 -28.109375 C 23.832031 -27.304688 25.035156 -26.082031 25.828125 -24.4375 C 26.617188 -22.800781 27.015625 -20.695312 27.015625 -18.125 L 27.015625 -2.078125 C 27.015625 -1.285156 26.828125 -0.671875 26.453125 -0.234375 C 26.078125 0.203125 25.535156 0.421875 24.828125 0.421875 C 24.078125 0.421875 23.503906 0.203125 23.109375 -0.234375 C 22.710938 -0.671875 22.515625 -1.285156 22.515625 -2.078125 L 22.515625 -6.6875 L 23.046875 -6.6875 C 22.734375 -5.1875 22.128906 -3.90625 21.234375 -2.84375 C 20.347656 -1.78125 19.253906 -0.953125 17.953125 -0.359375 C 16.648438 0.234375 15.1875 0.53125 13.5625 0.53125 Z M 13.5625 0.53125 "/></g></g></g><g fill="#000000" fill-opacity="1"><g transform="translate(237.231861, 93.056019)"><g><path d="M 16.703125 0.53125 C 13.828125 0.53125 11.34375 -0.0976562 9.25 -1.359375 C 7.15625 -2.628906 5.539062 -4.398438 4.40625 -6.671875 C 3.28125 -8.941406 2.71875 -11.578125 2.71875 -14.578125 C 2.71875 -16.867188 3.035156 -18.921875 3.671875 -20.734375 C 4.304688 -22.554688 5.234375 -24.109375 6.453125 -25.390625 C 7.679688 -26.671875 9.15625 -27.644531 10.875 -28.3125 C 12.59375 -28.988281 14.535156 -29.328125 16.703125 -29.328125 C 18.128906 -29.328125 19.613281 -29.109375 21.15625 -28.671875 C 22.695312 -28.242188 24.097656 -27.492188 25.359375 -26.421875 C 25.753906 -26.148438 26.007812 -25.816406 26.125 -25.421875 C 26.25 -25.023438 26.25 -24.640625 26.125 -24.265625 C 26.007812 -23.890625 25.8125 -23.570312 25.53125 -23.3125 C 25.257812 -23.0625 24.914062 -22.914062 24.5 -22.875 C 24.082031 -22.832031 23.65625 -22.96875 23.21875 -23.28125 C 22.195312 -24.070312 21.148438 -24.625 20.078125 -24.9375 C 19.015625 -25.257812 17.988281 -25.421875 17 -25.421875 C 15.457031 -25.421875 14.113281 -25.171875 12.96875 -24.671875 C 11.820312 -24.179688 10.851562 -23.484375 10.0625 -22.578125 C 9.28125 -21.671875 8.679688 -20.546875 8.265625 -19.203125 C 7.847656 -17.859375 7.640625 -16.296875 7.640625 -14.515625 C 7.640625 -11.078125 8.445312 -8.359375 10.0625 -6.359375 C 11.6875 -4.367188 14 -3.375 17 -3.375 C 17.988281 -3.375 19.003906 -3.53125 20.046875 -3.84375 C 21.097656 -4.164062 22.15625 -4.722656 23.21875 -5.515625 C 23.65625 -5.828125 24.070312 -5.960938 24.46875 -5.921875 C 24.863281 -5.878906 25.195312 -5.726562 25.46875 -5.46875 C 25.75 -5.21875 25.9375 -4.894531 26.03125 -4.5 C 26.132812 -4.101562 26.125 -3.71875 26 -3.34375 C 25.882812 -2.96875 25.628906 -2.644531 25.234375 -2.375 C 23.972656 -1.34375 22.59375 -0.597656 21.09375 -0.140625 C 19.59375 0.304688 18.128906 0.53125 16.703125 0.53125 Z M 16.703125 0.53125 "/></g></g></g><g fill="#000000" fill-opacity="1"><g transform="translate(264.662999, 93.056019)"><g><path d="M 6.875 0.421875 C 6.082031 0.421875 5.488281 0.203125 5.09375 -0.234375 C 4.695312 -0.671875 4.5 -1.285156 4.5 -2.078125 L 4.5 -39.75 C 4.5 -40.539062 4.695312 -41.144531 5.09375 -41.5625 C 5.488281 -41.976562 6.082031 -42.1875 6.875 -42.1875 C 7.625 -42.1875 8.210938 -41.976562 8.640625 -41.5625 C 9.078125 -41.144531 9.296875 -40.539062 9.296875 -39.75 L 9.296875 -16 L 9.421875 -16 L 21.5625 -27.609375 C 22.113281 -28.117188 22.597656 -28.507812 23.015625 -28.78125 C 23.429688 -29.0625 23.992188 -29.203125 24.703125 -29.203125 C 25.335938 -29.203125 25.832031 -29.035156 26.1875 -28.703125 C 26.539062 -28.367188 26.707031 -27.953125 26.6875 -27.453125 C 26.664062 -26.960938 26.421875 -26.441406 25.953125 -25.890625 L 13.03125 -13.625 L 13.03125 -16.234375 L 27.078125 -3.015625 C 27.628906 -2.460938 27.90625 -1.929688 27.90625 -1.421875 C 27.90625 -0.910156 27.71875 -0.472656 27.34375 -0.109375 C 26.96875 0.242188 26.484375 0.421875 25.890625 0.421875 C 25.179688 0.421875 24.609375 0.273438 24.171875 -0.015625 C 23.734375 -0.316406 23.203125 -0.765625 22.578125 -1.359375 L 9.421875 -13.515625 L 9.296875 -13.515625 L 9.296875 -2.078125 C 9.296875 -0.410156 8.488281 0.421875 6.875 0.421875 Z M 6.875 0.421875 "/></g></g></g></svg>